<svg xmlns="http://www.w3.org/2000/svg" width="920" height="520" viewBox="0 0 920 520" font-family="Helvetica, Arial, sans-serif">
<rect width="920" height="520" fill="#ffffff"/>
<text x="72" y="30" font-size="17" font-weight="bold">Stage 1 graph comprehension, zero-shot (500 records per task)</text>
<text x="72" y="50" font-size="12" fill="#555">Higher is better. Hatched bars are excluded as scorer artifacts, not model failures.</text>
<defs><pattern id="hatch" width="7" height="7" patternUnits="userSpaceOnUse" patternTransform="rotate(45)"><rect width="7" height="7" fill="#d8d8d8"/><line x1="0" y1="0" x2="0" y2="7" stroke="#9a9a9a" stroke-width="3"/></pattern></defs>
<line x1="72" y1="388.0" x2="896" y2="388.0" stroke="#e4e4e4" stroke-width="1"/>
<text x="63" y="392.0" font-size="11" fill="#555" text-anchor="end">0%</text>
<line x1="72" y1="324.8" x2="896" y2="324.8" stroke="#e4e4e4" stroke-width="1"/>
<text x="63" y="328.8" font-size="11" fill="#555" text-anchor="end">20%</text>
<line x1="72" y1="261.6" x2="896" y2="261.6" stroke="#e4e4e4" stroke-width="1"/>
<text x="63" y="265.6" font-size="11" fill="#555" text-anchor="end">40%</text>
<line x1="72" y1="198.4" x2="896" y2="198.4" stroke="#e4e4e4" stroke-width="1"/>
<text x="63" y="202.4" font-size="11" fill="#555" text-anchor="end">60%</text>
<line x1="72" y1="135.2" x2="896" y2="135.2" stroke="#e4e4e4" stroke-width="1"/>
<text x="63" y="139.2" font-size="11" fill="#555" text-anchor="end">80%</text>
<line x1="72" y1="72.0" x2="896" y2="72.0" stroke="#e4e4e4" stroke-width="1"/>
<text x="63" y="76.0" font-size="11" fill="#555" text-anchor="end">100%</text>
<line x1="72" y1="388" x2="896" y2="388" stroke="#333" stroke-width="1.5"/>
<rect x="90.7" y="386.1" width="46.0" height="1.9" fill="#c1666b"/>
<text x="113.7" y="380.1" font-size="11" text-anchor="middle" fill="#333">0.6</text>
<rect x="144.7" y="355.1" width="46.0" height="32.9" fill="#4a7ba7"/>
<text x="167.7" y="349.1" font-size="11" text-anchor="middle" fill="#333">10.4</text>
<text x="140.7" y="408" font-size="11.5" text-anchor="middle" fill="#333">Node count</text>
<text x="140.7" y="423" font-size="11.5" text-anchor="middle" fill="#333">(exact acc.)</text>
<rect x="228.0" y="374.7" width="46.0" height="13.3" fill="#c1666b"/>
<text x="251.0" y="368.7" font-size="11" text-anchor="middle" fill="#333">4.2</text>
<rect x="282.0" y="369.0" width="46.0" height="19.0" fill="url(#hatch)" stroke="#9a9a9a"/>
<text x="305.0" y="363.0" font-size="10" fill="#777" text-anchor="middle">excl.</text>
<text x="278.0" y="408" font-size="11.5" text-anchor="middle" fill="#333">Edge count</text>
<text x="278.0" y="423" font-size="11.5" text-anchor="middle" fill="#333">(exact acc.)</text>
<rect x="365.3" y="317.8" width="46.0" height="70.2" fill="#c1666b"/>
<text x="388.3" y="311.8" font-size="11" text-anchor="middle" fill="#333">22.2</text>
<rect x="419.3" y="233.8" width="46.0" height="154.2" fill="#4a7ba7"/>
<text x="442.3" y="227.8" font-size="11" text-anchor="middle" fill="#333">48.8</text>
<text x="415.3" y="408" font-size="11.5" text-anchor="middle" fill="#333">Node degree</text>
<text x="415.3" y="423" font-size="11.5" text-anchor="middle" fill="#333">(exact acc.)</text>
<rect x="502.7" y="384.8" width="46.0" height="3.2" fill="#c1666b"/>
<text x="525.7" y="378.8" font-size="11" text-anchor="middle" fill="#333">1.0</text>
<rect x="556.7" y="303.3" width="46.0" height="84.7" fill="#4a7ba7"/>
<text x="579.7" y="297.3" font-size="11" text-anchor="middle" fill="#333">26.8</text>
<line x1="490.0" y1="154.8" x2="615.3" y2="154.8" stroke="#222" stroke-width="1.6" stroke-dasharray="6 4"/>
<text x="552.7" y="149.8" font-size="10" text-anchor="middle" fill="#222">constant "5" = 73.8%</text>
<text x="552.7" y="408" font-size="11.5" text-anchor="middle" fill="#333">Highest degree</text>
<text x="552.7" y="423" font-size="11.5" text-anchor="middle" fill="#333">(degree acc.)</text>
<rect x="640.0" y="331.9" width="46.0" height="56.1" fill="#c1666b"/>
<text x="663.0" y="325.9" font-size="11" text-anchor="middle" fill="#333">17.7</text>
<rect x="694.0" y="192.3" width="46.0" height="195.7" fill="#4a7ba7"/>
<text x="717.0" y="186.3" font-size="11" text-anchor="middle" fill="#333">61.9</text>
<text x="690.0" y="408" font-size="11.5" text-anchor="middle" fill="#333">Node listing</text>
<text x="690.0" y="423" font-size="11.5" text-anchor="middle" fill="#333">(micro F1)</text>
<rect x="777.3" y="171.3" width="46.0" height="216.7" fill="#c1666b"/>
<text x="800.3" y="165.3" font-size="11" text-anchor="middle" fill="#333">68.6</text>
<rect x="831.3" y="74.9" width="46.0" height="313.1" fill="#4a7ba7"/>
<text x="854.3" y="68.9" font-size="11" text-anchor="middle" fill="#333">99.1</text>
<text x="827.3" y="408" font-size="11.5" text-anchor="middle" fill="#333">Triple listing</text>
<text x="827.3" y="423" font-size="11.5" text-anchor="middle" fill="#333">(gold-node recall)</text>
<rect x="72" y="474" width="14" height="14" fill="#c1666b"/>
<text x="92" y="486" font-size="12" fill="#333">DeepSeek-OCR-2</text>
<rect x="247" y="474" width="14" height="14" fill="#4a7ba7"/>
<text x="267" y="486" font-size="12" fill="#333">Qwen3-VL-8B</text>
<rect x="422" y="474" width="14" height="14" fill="url(#hatch)" stroke="#9a9a9a"/>
<text x="442" y="486" font-size="12" fill="#333">excluded (scorer artifact)</text>
<text x="72" y="506" font-size="10.5" fill="#666">Metrics differ by task; each bar is on a 0-100 scale. Token-ceiling hits count as wrong, so the Qwen edge and triple tasks are floors.</text>
</svg>